solid OpenSCAD_Model
  facet normal -1 0 0
    outer loop
      vertex 0 0 0
      vertex 0 0 47.5
      vertex 0 91 0
    endloop
  endfacet
  facet normal -1 0 0
    outer loop
      vertex 0 91 0
      vertex 0 0 47.5
      vertex 0 91 47.5
    endloop
  endfacet
  facet normal 0 -1 0
    outer loop
      vertex 12 0 2.5
      vertex 0 0 0
      vertex 61 0 0
    endloop
  endfacet
  facet normal 0 -1 0
    outer loop
      vertex 61 0 47.5
      vertex 0 0 47.5
      vertex 61 0 0
    endloop
  endfacet
  facet normal 0 -1 0
    outer loop
      vertex 38 0 2.5
      vertex 12 0 2.5
      vertex 61 0 0
    endloop
  endfacet
  facet normal 0 -1 0
    outer loop
      vertex 0 0 47.5
      vertex 0 0 0
      vertex 12 0 2.5
    endloop
  endfacet
  facet normal 0 -1 0
    outer loop
      vertex 0 0 47.5
      vertex 12 0 2.5
      vertex 12 0 7.5
    endloop
  endfacet
  facet normal 0 -1 0
    outer loop
      vertex 0 0 47.5
      vertex 38 0 7.5
      vertex 61 0 0
    endloop
  endfacet
  facet normal 0 -1 0
    outer loop
      vertex 0 0 47.5
      vertex 12 0 7.5
      vertex 38 0 7.5
    endloop
  endfacet
  facet normal 0 -1 0
    outer loop
      vertex 38 0 7.5
      vertex 38 0 2.5
      vertex 61 0 0
    endloop
  endfacet
  facet normal 0 0 -1
    outer loop
      vertex 0 0 0
      vertex 0 91 0
      vertex 61 0 0
    endloop
  endfacet
  facet normal 0 0 -1
    outer loop
      vertex 61 0 0
      vertex 0 91 0
      vertex 61 91 0
    endloop
  endfacet
  facet normal 0 1 0
    outer loop
      vertex 58.5 91 4.5
      vertex 61 91 0
      vertex 18.5 91 4.5
    endloop
  endfacet
  facet normal 0 1 0
    outer loop
      vertex 58.5 91 29.5
      vertex 0 91 47.5
      vertex 61 91 47.5
    endloop
  endfacet
  facet normal 0 1 0
    outer loop
      vertex 0 91 0
      vertex 0 91 47.5
      vertex 18.5 91 29.5
    endloop
  endfacet
  facet normal 0 1 0
    outer loop
      vertex 0 91 0
      vertex 18.5 91 29.5
      vertex 18.5 91 4.5
    endloop
  endfacet
  facet normal 0 1 0
    outer loop
      vertex 0 91 0
      vertex 18.5 91 4.5
      vertex 61 91 0
    endloop
  endfacet
  facet normal 0 1 0
    outer loop
      vertex 61 91 0
      vertex 58.5 91 4.5
      vertex 61 91 47.5
    endloop
  endfacet
  facet normal 0 1 0
    outer loop
      vertex 58.5 91 4.5
      vertex 58.5 91 29.5
      vertex 61 91 47.5
    endloop
  endfacet
  facet normal 0 1 0
    outer loop
      vertex 18.5 91 29.5
      vertex 0 91 47.5
      vertex 58.5 91 29.5
    endloop
  endfacet
  facet normal 0 0 1
    outer loop
      vertex 2.5 2.5 47.5
      vertex 0 0 47.5
      vertex 61 0 47.5
    endloop
  endfacet
  facet normal 0 0 1
    outer loop
      vertex 58.5 2.5 47.5
      vertex 2.5 2.5 47.5
      vertex 61 0 47.5
    endloop
  endfacet
  facet normal 0 0 1
    outer loop
      vertex 0 91 47.5
      vertex 0 0 47.5
      vertex 2.5 2.5 47.5
    endloop
  endfacet
  facet normal 0 0 1
    outer loop
      vertex 61 91 47.5
      vertex 0 91 47.5
      vertex 2.5 88.5 47.5
    endloop
  endfacet
  facet normal 0 0 1
    outer loop
      vertex 61 91 47.5
      vertex 58.5 88.5 47.5
      vertex 61 0 47.5
    endloop
  endfacet
  facet normal 0 0 1
    outer loop
      vertex 61 91 47.5
      vertex 2.5 88.5 47.5
      vertex 58.5 88.5 47.5
    endloop
  endfacet
  facet normal 0 0 1
    outer loop
      vertex 58.5 88.5 47.5
      vertex 58.5 2.5 47.5
      vertex 61 0 47.5
    endloop
  endfacet
  facet normal 0 0 1
    outer loop
      vertex 2.5 2.5 47.5
      vertex 2.5 88.5 47.5
      vertex 0 91 47.5
    endloop
  endfacet
  facet normal 1 0 0
    outer loop
      vertex 61 31 4.5
      vertex 61 0 0
      vertex 61 91 0
    endloop
  endfacet
  facet normal 1 0 0
    outer loop
      vertex 61 91 47.5
      vertex 61 0 47.5
      vertex 61 91 0
    endloop
  endfacet
  facet normal 1 0 0
    outer loop
      vertex 61 49 4.5
      vertex 61 31 4.5
      vertex 61 91 0
    endloop
  endfacet
  facet normal 1 0 0
    outer loop
      vertex 61 0 47.5
      vertex 61 0 0
      vertex 61 31 4.5
    endloop
  endfacet
  facet normal 1 0 0
    outer loop
      vertex 61 0 47.5
      vertex 61 31 4.5
      vertex 61 31 12.5
    endloop
  endfacet
  facet normal 1 0 0
    outer loop
      vertex 61 0 47.5
      vertex 61 49 12.5
      vertex 61 91 0
    endloop
  endfacet
  facet normal 1 0 0
    outer loop
      vertex 61 0 47.5
      vertex 61 31 12.5
      vertex 61 49 12.5
    endloop
  endfacet
  facet normal 1 0 0
    outer loop
      vertex 61 49 12.5
      vertex 61 49 4.5
      vertex 61 91 0
    endloop
  endfacet
  facet normal 1 0 0
    outer loop
      vertex 12 2.5 2.5
      vertex 12 2.5 7.5
      vertex 12 0 7.5
    endloop
  endfacet
  facet normal 1 0 0
    outer loop
      vertex 12 0 2.5
      vertex 12 2.5 2.5
      vertex 12 0 7.5
    endloop
  endfacet
  facet normal 0 0 1
    outer loop
      vertex 12 2.5 2.5
      vertex 12 0 2.5
      vertex 38 0 2.5
    endloop
  endfacet
  facet normal 0 0 1
    outer loop
      vertex 38 19 2.5
      vertex 12 2.5 2.5
      vertex 38 2.5 2.5
    endloop
  endfacet
  facet normal 0 0 1
    outer loop
      vertex 38 2.5 2.5
      vertex 12 2.5 2.5
      vertex 38 0 2.5
    endloop
  endfacet
  facet normal 0 0 1
    outer loop
      vertex 12 19 2.5
      vertex 12 2.5 2.5
      vertex 38 19 2.5
    endloop
  endfacet
  facet normal -1 0 0
    outer loop
      vertex 38 2.5 7.5
      vertex 38 2.5 2.5
      vertex 38 0 7.5
    endloop
  endfacet
  facet normal -1 0 0
    outer loop
      vertex 38 0 7.5
      vertex 38 2.5 2.5
      vertex 38 0 2.5
    endloop
  endfacet
  facet normal 0 0 -1
    outer loop
      vertex 38 2.5 7.5
      vertex 38 0 7.5
      vertex 12 2.5 7.5
    endloop
  endfacet
  facet normal 0 0 -1
    outer loop
      vertex 12 2.5 7.5
      vertex 38 0 7.5
      vertex 12 0 7.5
    endloop
  endfacet
  facet normal 1 0 0
    outer loop
      vertex 18.5 91 4.5
      vertex 18.5 91 29.5
      vertex 18.5 88.5 29.5
    endloop
  endfacet
  facet normal 1 0 0
    outer loop
      vertex 18.5 88.5 4.5
      vertex 18.5 91 4.5
      vertex 18.5 88.5 29.5
    endloop
  endfacet
  facet normal 0 0 -1
    outer loop
      vertex 58.5 91 29.5
      vertex 58.5 88.5 29.5
      vertex 18.5 91 29.5
    endloop
  endfacet
  facet normal 0 0 -1
    outer loop
      vertex 18.5 91 29.5
      vertex 58.5 88.5 29.5
      vertex 18.5 88.5 29.5
    endloop
  endfacet
  facet normal -1 0 0
    outer loop
      vertex 58.5 86.2 4.5
      vertex 58.5 86.2 29.5
      vertex 58.5 88.5 4.5
    endloop
  endfacet
  facet normal -1 0 0
    outer loop
      vertex 58.5 88.5 4.5
      vertex 58.5 86.2 29.5
      vertex 58.5 88.5 29.5
    endloop
  endfacet
  facet normal -1 0 0
    outer loop
      vertex 58.5 88.5 4.5
      vertex 58.5 88.5 29.5
      vertex 58.5 91 29.5
    endloop
  endfacet
  facet normal -1 0 0
    outer loop
      vertex 58.5 88.5 4.5
      vertex 58.5 91 29.5
      vertex 58.5 91 4.5
    endloop
  endfacet
  facet normal 0 0 1
    outer loop
      vertex 58.5 88.5 4.5
      vertex 58.5 91 4.5
      vertex 18.5 91 4.5
    endloop
  endfacet
  facet normal 0 0 1
    outer loop
      vertex 18.5 88.5 4.5
      vertex 58.5 88.5 4.5
      vertex 18.5 91 4.5
    endloop
  endfacet
  facet normal 1 0 0
    outer loop
      vertex 2.5 2.5 47.5
      vertex 2.5 2.5 2.5
      vertex 2.5 88.5 2.5
    endloop
  endfacet
  facet normal 1 0 0
    outer loop
      vertex 2.5 88.5 47.5
      vertex 2.5 2.5 47.5
      vertex 2.5 88.5 2.5
    endloop
  endfacet
  facet normal 0 1 0
    outer loop
      vertex 2.5 2.5 2.5
      vertex 2.5 2.5 47.5
      vertex 12 2.5 2.5
    endloop
  endfacet
  facet normal 0 1 0
    outer loop
      vertex 12 2.5 7.5
      vertex 2.5 2.5 47.5
      vertex 58.5 2.5 47.5
    endloop
  endfacet
  facet normal 0 1 0
    outer loop
      vertex 38 2.5 2.5
      vertex 58.5 2.5 47.5
      vertex 58.5 2.5 2.5
    endloop
  endfacet
  facet normal 0 1 0
    outer loop
      vertex 38 2.5 7.5
      vertex 58.5 2.5 47.5
      vertex 38 2.5 2.5
    endloop
  endfacet
  facet normal 0 1 0
    outer loop
      vertex 12 2.5 2.5
      vertex 2.5 2.5 47.5
      vertex 12 2.5 7.5
    endloop
  endfacet
  facet normal 0 1 0
    outer loop
      vertex 12 2.5 7.5
      vertex 58.5 2.5 47.5
      vertex 38 2.5 7.5
    endloop
  endfacet
  facet normal -1 0 0
    outer loop
      vertex 58.5 49 12.5
      vertex 58.5 2.5 47.5
      vertex 58.5 88.5 2.5
    endloop
  endfacet
  facet normal -1 0 0
    outer loop
      vertex 58.5 88.5 29.5
      vertex 58.5 2.5 47.5
      vertex 58.5 88.5 47.5
    endloop
  endfacet
  facet normal -1 0 0
    outer loop
      vertex 58.5 86.2 29.5
      vertex 58.5 2.5 47.5
      vertex 58.5 88.5 29.5
    endloop
  endfacet
  facet normal -1 0 0
    outer loop
      vertex 58.5 86.2 4.5
      vertex 58.5 2.5 47.5
      vertex 58.5 86.2 29.5
    endloop
  endfacet
  facet normal -1 0 0
    outer loop
      vertex 58.5 88.5 2.5
      vertex 58.5 2.5 47.5
      vertex 58.5 86.2 4.5
    endloop
  endfacet
  facet normal -1 0 0
    outer loop
      vertex 58.5 49 12.5
      vertex 58.5 88.5 2.5
      vertex 58.5 49 4.5
    endloop
  endfacet
  facet normal -1 0 0
    outer loop
      vertex 58.5 2.5 2.5
      vertex 58.5 2.5 47.5
      vertex 58.5 31 12.5
    endloop
  endfacet
  facet normal -1 0 0
    outer loop
      vertex 58.5 2.5 2.5
      vertex 58.5 31 12.5
      vertex 58.5 31 4.5
    endloop
  endfacet
  facet normal -1 0 0
    outer loop
      vertex 58.5 2.5 2.5
      vertex 58.5 31 4.5
      vertex 58.5 88.5 2.5
    endloop
  endfacet
  facet normal -1 0 0
    outer loop
      vertex 58.5 31 4.5
      vertex 58.5 49 4.5
      vertex 58.5 88.5 2.5
    endloop
  endfacet
  facet normal -1 0 0
    outer loop
      vertex 58.5 31 12.5
      vertex 58.5 2.5 47.5
      vertex 58.5 49 12.5
    endloop
  endfacet
  facet normal -1 0 0
    outer loop
      vertex 58.5 88.5 4.5
      vertex 58.5 88.5 2.5
      vertex 58.5 86.2 4.5
    endloop
  endfacet
  facet normal 0 -1 0
    outer loop
      vertex 18.5 88.5 4.5
      vertex 2.5 88.5 2.5
      vertex 58.5 88.5 2.5
    endloop
  endfacet
  facet normal 0 -1 0
    outer loop
      vertex 2.5 88.5 47.5
      vertex 2.5 88.5 2.5
      vertex 18.5 88.5 4.5
    endloop
  endfacet
  facet normal 0 -1 0
    outer loop
      vertex 18.5 88.5 29.5
      vertex 58.5 88.5 29.5
      vertex 2.5 88.5 47.5
    endloop
  endfacet
  facet normal 0 -1 0
    outer loop
      vertex 2.5 88.5 47.5
      vertex 18.5 88.5 4.5
      vertex 18.5 88.5 29.5
    endloop
  endfacet
  facet normal 0 -1 0
    outer loop
      vertex 58.5 88.5 47.5
      vertex 2.5 88.5 47.5
      vertex 58.5 88.5 29.5
    endloop
  endfacet
  facet normal 0 -1 0
    outer loop
      vertex 58.5 88.5 4.5
      vertex 18.5 88.5 4.5
      vertex 58.5 88.5 2.5
    endloop
  endfacet
  facet normal 0 0 1
    outer loop
      vertex 61 31 4.5
      vertex 61 49 4.5
      vertex 58.5 49 4.5
    endloop
  endfacet
  facet normal 0 0 1
    outer loop
      vertex 58.5 31 4.5
      vertex 61 31 4.5
      vertex 58.5 49 4.5
    endloop
  endfacet
  facet normal 0 1 0
    outer loop
      vertex 61 31 12.5
      vertex 61 31 4.5
      vertex 58.5 31 12.5
    endloop
  endfacet
  facet normal 0 1 0
    outer loop
      vertex 58.5 31 12.5
      vertex 61 31 4.5
      vertex 58.5 31 4.5
    endloop
  endfacet
  facet normal 0 -1 0
    outer loop
      vertex 61 49 4.5
      vertex 61 49 12.5
      vertex 58.5 49 12.5
    endloop
  endfacet
  facet normal 0 -1 0
    outer loop
      vertex 58.5 49 4.5
      vertex 61 49 4.5
      vertex 58.5 49 12.5
    endloop
  endfacet
  facet normal 0 0 -1
    outer loop
      vertex 61 49 12.5
      vertex 61 31 12.5
      vertex 58.5 49 12.5
    endloop
  endfacet
  facet normal 0 0 -1
    outer loop
      vertex 58.5 49 12.5
      vertex 61 31 12.5
      vertex 58.5 31 12.5
    endloop
  endfacet
  facet normal 0 0 1
    outer loop
      vertex 2.5 88.5 2.5
      vertex 2.5 2.5 2.5
      vertex 12 2.5 2.5
    endloop
  endfacet
  facet normal 0 0 1
    outer loop
      vertex 38 19 2.5
      vertex 2.5 88.5 2.5
      vertex 12 19 2.5
    endloop
  endfacet
  facet normal 0 0 1
    outer loop
      vertex 12 19 2.5
      vertex 2.5 88.5 2.5
      vertex 12 2.5 2.5
    endloop
  endfacet
  facet normal 0 0 1
    outer loop
      vertex 58.5 2.5 2.5
      vertex 2.5 88.5 2.5
      vertex 38 19 2.5
    endloop
  endfacet
  facet normal 0 0 1
    outer loop
      vertex 58.5 2.5 2.5
      vertex 38 19 2.5
      vertex 38 2.5 2.5
    endloop
  endfacet
  facet normal 0 0 1
    outer loop
      vertex 58.5 88.5 2.5
      vertex 2.5 88.5 2.5
      vertex 58.5 2.5 2.5
    endloop
  endfacet
endsolid OpenSCAD_Model
