solid OpenSCAD_Model
  facet normal -1 0 0
    outer loop
      vertex 0 0 0
      vertex 0 0 2.5
      vertex 0 91 0
    endloop
  endfacet
  facet normal -1 0 0
    outer loop
      vertex 0 91 0
      vertex 0 0 2.5
      vertex 0 91 2.5
    endloop
  endfacet
  facet normal 0 -1 0
    outer loop
      vertex 0 0 2.5
      vertex 0 0 0
      vertex 61 0 0
    endloop
  endfacet
  facet normal 0 -1 0
    outer loop
      vertex 61 0 2.5
      vertex 0 0 2.5
      vertex 61 0 0
    endloop
  endfacet
  facet normal 0 0 -1
    outer loop
      vertex 0 0 0
      vertex 0 91 0
      vertex 61 0 0
    endloop
  endfacet
  facet normal 0 0 -1
    outer loop
      vertex 61 0 0
      vertex 0 91 0
      vertex 61 91 0
    endloop
  endfacet
  facet normal 0 1 0
    outer loop
      vertex 0 91 0
      vertex 0 91 2.5
      vertex 61 91 0
    endloop
  endfacet
  facet normal 0 1 0
    outer loop
      vertex 61 91 0
      vertex 0 91 2.5
      vertex 61 91 2.5
    endloop
  endfacet
  facet normal 0 0 1
    outer loop
      vertex 2.6 2.6 2.5
      vertex 0 0 2.5
      vertex 61 0 2.5
    endloop
  endfacet
  facet normal 0 0 1
    outer loop
      vertex 58.4 2.6 2.5
      vertex 2.6 2.6 2.5
      vertex 61 0 2.5
    endloop
  endfacet
  facet normal 0 0 1
    outer loop
      vertex 0 91 2.5
      vertex 0 0 2.5
      vertex 2.6 2.6 2.5
    endloop
  endfacet
  facet normal 0 0 1
    outer loop
      vertex 61 91 2.5
      vertex 0 91 2.5
      vertex 2.6 88.4 2.5
    endloop
  endfacet
  facet normal 0 0 1
    outer loop
      vertex 61 91 2.5
      vertex 58.4 88.4 2.5
      vertex 61 0 2.5
    endloop
  endfacet
  facet normal 0 0 1
    outer loop
      vertex 61 91 2.5
      vertex 2.6 88.4 2.5
      vertex 58.4 88.4 2.5
    endloop
  endfacet
  facet normal 0 0 1
    outer loop
      vertex 58.4 88.4 2.5
      vertex 58.4 2.6 2.5
      vertex 61 0 2.5
    endloop
  endfacet
  facet normal 0 0 1
    outer loop
      vertex 2.6 2.6 2.5
      vertex 2.6 88.4 2.5
      vertex 0 91 2.5
    endloop
  endfacet
  facet normal 1 0 0
    outer loop
      vertex 61 0 2.5
      vertex 61 0 0
      vertex 61 91 0
    endloop
  endfacet
  facet normal 1 0 0
    outer loop
      vertex 61 91 2.5
      vertex 61 0 2.5
      vertex 61 91 0
    endloop
  endfacet
  facet normal -1 0 0
    outer loop
      vertex 2.6 2.6 2.5
      vertex 2.6 2.6 5
      vertex 2.6 88.4 2.5
    endloop
  endfacet
  facet normal -1 0 0
    outer loop
      vertex 2.6 88.4 2.5
      vertex 2.6 2.6 5
      vertex 2.6 88.4 5
    endloop
  endfacet
  facet normal 0 -1 0
    outer loop
      vertex 2.6 2.6 5
      vertex 2.6 2.6 2.5
      vertex 58.4 2.6 2.5
    endloop
  endfacet
  facet normal 0 -1 0
    outer loop
      vertex 58.4 2.6 5
      vertex 2.6 2.6 5
      vertex 58.4 2.6 2.5
    endloop
  endfacet
  facet normal 1 0 0
    outer loop
      vertex 58.4 2.6 5
      vertex 58.4 2.6 2.5
      vertex 58.4 88.4 2.5
    endloop
  endfacet
  facet normal 1 0 0
    outer loop
      vertex 58.4 88.4 5
      vertex 58.4 2.6 5
      vertex 58.4 88.4 2.5
    endloop
  endfacet
  facet normal 0 1 0
    outer loop
      vertex 2.6 88.4 2.5
      vertex 2.6 88.4 5
      vertex 58.4 88.4 2.5
    endloop
  endfacet
  facet normal 0 1 0
    outer loop
      vertex 58.4 88.4 2.5
      vertex 2.6 88.4 5
      vertex 58.4 88.4 5
    endloop
  endfacet
  facet normal 0 0 1
    outer loop
      vertex 2.6 88.4 5
      vertex 2.6 2.6 5
      vertex 58.4 2.6 5
    endloop
  endfacet
  facet normal 0 0 1
    outer loop
      vertex 58.4 88.4 5
      vertex 2.6 88.4 5
      vertex 58.4 2.6 5
    endloop
  endfacet
endsolid OpenSCAD_Model
